<?xml version="1.0" encoding="UTF-8" standalone="no"?>
<!-- Created with Inkscape (http://www.inkscape.org/) -->

<svg
   width="1200"
   height="1200"
   viewBox="0 0 317.49999 317.5"
   version="1.1"
   id="svg1"
   xmlns="http://www.w3.org/2000/svg"
   xmlns:svg="http://www.w3.org/2000/svg">
  <defs
     id="defs1">
    <linearGradient
       id="swatch1">
      <stop
         style="stop-color:#000000;stop-opacity:1;"
         offset="0"
         id="stop1" />
    </linearGradient>
  </defs>
  <g
     id="layer1">
    <g
       id="g71"
       transform="translate(-5.393416)">
      <path
         id="path25"
         style="baseline-shift:baseline;display:inline;overflow:visible;opacity:1;vector-effect:none;fill:#bf1922;fill-opacity:1;enable-background:accumulate;stop-color:#000000;stop-opacity:1"
         d="m 232.9047,97.985225 c -0.54,-0.0143 -1.08192,-0.0212 -1.62523,-0.0212 -7.7513,0 -15.17473,1.46831 -22.00589,4.140835 v 23.62335 c 6.28043,-4.17391 13.84086,-6.59855 22.00589,-6.59855 0.54442,0 1.08638,0.0107 1.62523,0.032 z m 0,0 v 21.176485 c 21.24233,0.84198 37.99406,18.12497 37.99406,39.58724 0,21.46226 -16.75173,38.74672 -37.99406,39.58879 v 21.177 c 32.702,-0.86833 59.15969,-27.86309 59.15969,-60.76579 0,-32.9027 -26.45769,-59.895455 -59.15969,-60.763725 z m 0,100.352515 c -0.53885,0.0214 -1.08081,0.0326 -1.62523,0.0326 -8.16503,0 -15.72546,-2.42482 -22.00589,-6.59908 v 23.62388 c 6.83116,2.67267 14.25459,4.14083 22.00589,4.14083 0.54331,0 1.08523,-0.007 1.62523,-0.0212 z m 0,-79.17603 c -0.53885,-0.0214 -1.08081,-0.032 -1.62523,-0.032 -8.16503,0 -15.72546,2.42464 -22.00589,6.59855 v 66.043 c 6.28043,4.17426 13.84086,6.59908 22.00589,6.59908 0.54442,0 1.08638,-0.0112 1.62523,-0.0326 z" />
      <path
         id="path25-5"
         style="baseline-shift:baseline;display:inline;overflow:visible;vector-effect:none;fill:#bf1922;fill-opacity:1;enable-background:accumulate;stop-color:#000000"
         d="m 95.382139,97.985224 c 0.54,-0.0143 1.08192,-0.0212 1.62523,-0.0212 7.751301,0 15.174731,1.46832 22.005891,4.140826 v 23.62336 c -6.28043,-4.17392 -13.84086,-6.59856 -22.005891,-6.59856 -0.54442,0 -1.08638,0.0107 -1.62523,0.032 z m 0,0 V 119.1617 c -21.242332,0.84198 -37.994062,18.12498 -37.994062,39.58724 0,21.46226 16.75173,38.74672 37.994062,39.58879 v 21.177 C 62.680137,218.6464 36.222447,191.65164 36.222447,158.74894 c 0,-32.9027 26.45769,-59.895446 59.159692,-60.763716 z m 0,100.352506 c 0.53885,0.0214 1.08081,0.0326 1.62523,0.0326 8.165031,0 15.725461,-2.42482 22.005891,-6.59907 v 23.62388 c -6.83116,2.67267 -14.25459,4.14083 -22.005891,4.14083 -0.54331,0 -1.08523,-0.007 -1.62523,-0.0212 z" />
      <path
         id="path67"
         style="baseline-shift:baseline;display:inline;overflow:visible;vector-effect:none;fill:#bf1922;fill-opacity:1;stroke-width:1.00596;enable-background:accumulate;stop-color:#000000;stop-opacity:1"
         d="m 183.85901,163.89974 v 32.60658 l 20.98063,17.61848 v -86.98118 z m -1.31207,-22.44743 0.65629,-1.13636 v -37.13107 l -0.65629,-5.1e-4 z m 0.65629,-1.13636 0.65578,-1.13533 v -35.99574 h -0.65578 z m 0.65578,-1.13533 20.78891,-35.9916 -20.78891,-0.004 z m -39.43119,0.16329 v -36.16729 l -20.87314,-0.004 z m -20.98063,-12.813 v 87.79646 l 20.98063,-16.47355 v -34.59764 z m 21.63641,13.94937 v -37.30366 h -0.65578 v 36.16729 z m 0,0 0.65629,1.1374 v -38.44055 l -0.65629,-5.1e-4 z m 37.46334,0.97203 v -38.26794 l -36.80705,-0.007 v 38.44054 l 18.3472,31.79392 z" />
    </g>
  </g>
</svg>
